HIERARCHY
ROOT joint_Root
{
	OFFSET 0.0 0.0 0.0
	CHANNELS 6 Xposition Yposition Zposition Zrotation Xrotation Yrotation 
	JOINT Hips
	{
		OFFSET -0.726466 93.3139 -2.00062
		CHANNELS 6 Xposition Yposition Zposition Zrotation Xrotation Yrotation 
		JOINT Spine
		{
			OFFSET 15.7357 0.0 0.0
			CHANNELS 6 Xposition Yposition Zposition Zrotation Xrotation Yrotation 
			JOINT Chest
			{
				OFFSET 8.98455 -0.406207 0.0
				CHANNELS 6 Xposition Yposition Zposition Zrotation Xrotation Yrotation 
				JOINT Neck
				{
					OFFSET 16.3773 0.0 0.0
					CHANNELS 6 Xposition Yposition Zposition Zrotation Xrotation Yrotation 
					JOINT Head
					{
						OFFSET 6.45672 0.0 0.0
						CHANNELS 6 Xposition Yposition Zposition Zrotation Xrotation Yrotation 
						End Site
						{
							OFFSET 0.0 0.0 0.0
						}
					}
				}
				JOINT Shoulder_L
				{
					OFFSET 12.9942 -0.242716 4.98039
					CHANNELS 6 Xposition Yposition Zposition Zrotation Xrotation Yrotation 
					JOINT UpperArm_L
					{
						OFFSET 5.34809 0.0 0.0
						CHANNELS 6 Xposition Yposition Zposition Zrotation Xrotation Yrotation 
						JOINT LowerArm_L
						{
							OFFSET 24.3286 1.87007e-05 0.0
							CHANNELS 6 Xposition Yposition Zposition Zrotation Xrotation Yrotation 
							JOINT Hand_L
							{
								OFFSET 22.2916 0.0 0.0
								CHANNELS 6 Xposition Yposition Zposition Zrotation Xrotation Yrotation 
								End Site
								{
									OFFSET 0.0 0.0 0.0
								}
							}
						}
					}
				}
				JOINT Shoulder_R
				{
					OFFSET 12.9945 -0.242716 -4.98039
					CHANNELS 6 Xposition Yposition Zposition Zrotation Xrotation Yrotation 
					JOINT UpperArm_R
					{
						OFFSET -5.34813 0.0 0.0
						CHANNELS 6 Xposition Yposition Zposition Zrotation Xrotation Yrotation 
						JOINT LowerArm_R
						{
							OFFSET -24.3289 0.000322201 0.0
							CHANNELS 6 Xposition Yposition Zposition Zrotation Xrotation Yrotation 
							JOINT Hand_R
							{
								OFFSET -22.2915 -0.000108084 0.0
								CHANNELS 6 Xposition Yposition Zposition Zrotation Xrotation Yrotation 
								End Site
								{
									OFFSET 0.0 0.0 0.0
								}
							}
						}
					}
				}
			}
		}
		JOINT UpperLeg_L
		{
			OFFSET -2.19248 -6.46944 0.0
			CHANNELS 6 Xposition Yposition Zposition Zrotation Xrotation Yrotation 
			JOINT LowerLeg_L
			{
				OFFSET 39.0811 0.0 -1.23785e-05
				CHANNELS 6 Xposition Yposition Zposition Zrotation Xrotation Yrotation 
				JOINT Foot_L
				{
					OFFSET 40.9854 0.0 -1.26872e-05
					CHANNELS 6 Xposition Yposition Zposition Zrotation Xrotation Yrotation 
					JOINT Toes_L
					{
						OFFSET 11.7543 0.0 0.0
						CHANNELS 6 Xposition Yposition Zposition Zrotation Xrotation Yrotation 
						End Site
						{
							OFFSET 0.0 0.0 0.0
						}
					}
				}
			}
		}
		JOINT UpperLeg_R
		{
			OFFSET -2.19251 6.46944 0.0
			CHANNELS 6 Xposition Yposition Zposition Zrotation Xrotation Yrotation 
			JOINT LowerLeg_R
			{
				OFFSET -39.0811 -0.00228153 -0.0401928
				CHANNELS 6 Xposition Yposition Zposition Zrotation Xrotation Yrotation 
				JOINT Foot_R
				{
					OFFSET -40.9854 0.0 0.0
					CHANNELS 6 Xposition Yposition Zposition Zrotation Xrotation Yrotation 
					JOINT Toes_R
					{
						OFFSET -11.7543 0.0 0.0
						CHANNELS 6 Xposition Yposition Zposition Zrotation Xrotation Yrotation 
						End Site
						{
							OFFSET 0.0 0.0 0.0
						}
					}
				}
			}
		}
	}
}
MOTION
Frames:	6
Frame Time:	0.0333333
0.000000 0.000000 0.000000 0.000000 0.000000 -0.000000 -2.024520 91.398100 1.349770 -89.408200 -10.228800 169.174000 15.735700 0.000005 -0.000001 49.604100 79.915900 -47.025900 8.984550 -0.406207 -0.000000 8.050790 -13.010300 6.088310 16.377300 -0.000001 -0.000001 4.730200 -1.774160 -1.914760 6.456720 -0.000001 -0.000000 -0.944748 4.735400 -1.451860 12.994200 -0.242716 4.980390 -86.550700 -10.684900 -71.991300 5.348090 -0.000007 -0.000001 -65.877300 14.753400 -24.473500 24.328600 0.000019 0.000005 -6.588230 -1.396260 -78.086000 22.291600 -0.000001 0.000005 0.443436 5.622880 -12.819000 12.994500 -0.242716 -4.980390 92.276300 -4.423440 -62.733800 -5.348130 -0.000001 -0.000004 -68.729500 20.236300 19.291700 -24.328900 0.000322 -0.000009 -2.466540 -2.123810 -49.278900 -22.291500 -0.000108 -0.000004 -1.007530 5.604870 -11.636500 -2.192480 -6.469440 -0.000000 -169.129000 -2.985880 10.515700 39.081100 -0.000007 -0.000012 0.033054 -0.048937 34.036300 40.985400 -0.000006 -0.000013 -3.446870 -4.006500 -39.571800 11.754300 -0.000000 0.000003 -0.006825 -0.078161 -19.758500 -2.192510 6.469440 -0.000001 -169.771000 20.029100 140.676000 -39.081100 -0.002282 -0.040193 -0.038847 0.190023 12.515600 -40.985400 0.000008 0.000006 -11.969500 2.879300 -65.612100 -11.754300 -0.000006 -0.000006 -0.026495 -0.200923 -24.796600
0.000000 0.000000 0.000000 0.000000 0.000000 -0.000000 -1.730250 89.193300 -9.042720 -90.458400 -10.914300 170.194000 15.735700 0.000005 -0.000001 50.845900 79.823800 -48.368600 8.984550 -0.406207 -0.000000 8.457570 -12.778100 5.914880 16.377300 -0.000001 -0.000001 5.070340 -2.249120 -1.823030 6.456720 -0.000001 -0.000000 -1.089500 4.621550 -1.477690 12.994200 -0.242716 4.980390 -86.755500 -10.268900 -72.360000 5.348090 -0.000007 -0.000001 -66.932300 17.278300 -21.515300 24.328600 0.000019 0.000005 -5.382000 -1.290040 -76.555700 22.291600 -0.000001 0.000005 0.119254 5.620370 -12.644600 12.994500 -0.242716 -4.980390 91.983600 -3.779720 -62.282600 -5.348130 -0.000001 -0.000004 -67.488400 19.562600 18.028800 -24.328900 0.000322 -0.000009 -2.747140 -2.339140 -49.603500 -22.291500 -0.000108 -0.000004 -1.356230 5.603720 -11.566700 -2.192480 -6.469440 -0.000000 -169.320000 -0.987021 11.980800 39.081100 -0.000007 -0.000012 0.090329 -0.097536 42.802400 40.985400 -0.000006 -0.000013 0.406018 -8.413020 -43.342300 11.754300 -0.000000 0.000003 -0.007143 -0.080895 -19.870100 -2.192510 6.469440 -0.000001 -168.630000 22.862600 139.870000 -39.081100 -0.002282 -0.040193 -0.042646 0.172074 14.959300 -40.985400 0.000008 0.000006 -10.843300 -0.114092 -71.090500 -11.754300 -0.000006 -0.000006 -0.025167 -0.194392 -24.526400
0.000000 0.000000 0.000000 0.000000 0.000000 -0.000000 -1.256590 86.547600 -19.066200 -87.738600 -10.058600 171.261000 15.735700 0.000005 -0.000001 56.957800 80.166100 -53.434100 8.984550 -0.406207 -0.000000 9.177590 -10.625000 7.912860 16.377300 -0.000001 -0.000001 5.864470 -2.415120 -2.363710 6.456720 -0.000001 -0.000000 -2.280250 4.265420 -1.194910 12.994200 -0.242716 4.980390 -87.405300 -8.478940 -72.915300 5.348090 -0.000007 -0.000001 -66.931800 19.500000 -17.777100 24.328600 0.000019 0.000005 -3.574590 -1.060810 -73.479000 22.291600 -0.000001 0.000005 -0.266038 5.617320 -12.438400 12.994500 -0.242716 -4.980390 91.064600 -2.103230 -63.150800 -5.348130 -0.000001 -0.000004 -64.613900 18.829100 14.981900 -24.328900 0.000322 -0.000009 -2.770590 -2.311220 -50.181200 -22.291500 -0.000108 -0.000004 -1.621700 5.603610 -11.560700 -2.192480 -6.469440 -0.000000 -166.221000 -1.443060 9.995220 39.081100 -0.000007 -0.000012 0.178366 -0.122795 55.454100 40.985400 -0.000006 -0.000013 4.831780 -10.726600 -39.943900 11.754300 -0.000000 0.000003 -0.006345 -0.073944 -19.586500 -2.192510 6.469440 -0.000001 -164.720000 19.616800 132.803000 -39.081100 -0.002282 -0.040193 0.368410 -0.570383 32.624900 -40.985400 0.000008 0.000006 9.419560 -4.489210 -60.400400 -11.754300 -0.000006 -0.000006 -0.040218 -0.260976 -27.294100
0.000000 0.000000 0.000000 0.000000 0.000000 -0.000000 -0.834163 83.250900 -29.242400 -84.557600 -7.710700 174.906000 15.735700 0.000005 -0.000001 67.415100 79.471300 -62.854500 8.984550 -0.406207 -0.000000 12.091700 -7.845580 9.963390 16.377300 -0.000001 -0.000001 3.974180 -1.469240 -2.427310 6.456720 -0.000001 -0.000000 -2.396030 4.201800 -2.386390 12.994200 -0.242716 4.980390 -87.981500 -6.348750 -72.317300 5.348090 -0.000007 -0.000001 -66.836600 21.270300 -13.646500 24.328600 0.000019 0.000005 -2.638110 -1.035500 -68.589000 22.291600 -0.000001 0.000005 -1.066060 5.621810 -12.748300 12.994500 -0.242716 -4.980390 90.113300 -0.231764 -64.053800 -5.348130 -0.000001 -0.000004 -59.876000 19.245200 8.020270 -24.328900 0.000322 -0.000009 -3.689970 -3.047770 -50.489400 -22.291500 -0.000108 -0.000004 -1.243170 5.611040 -12.021300 -2.192480 -6.469440 -0.000000 -163.349000 -1.919350 7.842050 39.081100 -0.000007 -0.000012 0.260230 -0.087284 71.456800 40.985400 -0.000006 -0.000013 4.129900 -11.987400 -36.883800 11.754300 -0.000000 0.000003 -0.006616 -0.076338 -19.684200 -2.192510 6.469440 -0.000001 -167.426000 10.553200 133.549000 -39.081100 -0.002282 -0.040193 -0.071679 0.060709 50.982900 -40.985400 0.000008 0.000006 4.497190 -11.814000 -61.988300 -11.754300 -0.000006 -0.000006 -0.022297 -0.179694 -23.919300
0.000000 0.000000 0.000000 0.000000 0.000000 -0.000000 -0.281130 80.832500 -38.121700 -80.496800 -4.134630 177.386000 15.735700 0.000005 -0.000001 75.901900 78.402400 -70.369400 8.984550 -0.406207 -0.000000 15.056800 -5.224630 11.771000 16.377300 -0.000001 -0.000001 2.470650 0.503317 -1.716210 6.456720 -0.000001 -0.000000 -2.808350 5.058040 -3.082770 12.994200 -0.242716 4.980390 -88.445400 -4.518310 -70.989100 5.348090 -0.000007 -0.000001 -67.487200 20.359500 -8.987970 24.328600 0.000019 0.000005 -3.164040 -1.843580 -59.818800 22.291600 -0.000001 0.000005 -1.548170 5.628980 -13.259800 12.994500 -0.242716 -4.980390 89.081700 2.060240 -65.950800 -5.348130 -0.000001 -0.000004 -53.872700 19.490900 -5.186720 -24.328900 0.000322 -0.000009 -3.160160 -2.842100 -48.050000 -22.291500 -0.000108 -0.000004 -0.097835 5.620350 -12.639800 -2.192480 -6.469440 -0.000000 -161.352000 -2.944550 0.729516 39.081100 -0.000007 -0.000012 0.191256 -0.002449 89.263700 40.985400 -0.000006 -0.000013 6.393880 -7.908590 -38.260800 11.754300 -0.000000 0.000003 -0.006852 -0.078396 -19.768100 -2.192510 6.469440 -0.000001 -162.462000 9.682230 137.356000 -39.081100 -0.002282 -0.040193 0.218475 -0.117798 61.313500 -40.985400 0.000008 0.000006 9.947970 -12.832300 -72.729700 -11.754300 -0.000006 -0.000006 -0.006986 -0.079542 -19.811200
0.000000 0.000000 0.000000 0.000000 0.000000 -0.000000 -0.157095 79.560300 -46.075900 -81.083300 -2.947670 177.463000 15.735700 0.000005 -0.000001 78.478100 78.195900 -73.365200 8.984550 -0.406207 -0.000000 15.614400 -4.299870 10.829800 16.377300 -0.000001 -0.000001 2.635820 0.651158 -1.387040 6.456720 -0.000001 -0.000000 -2.113280 4.394920 -2.304420 12.994200 -0.242716 4.980390 -88.227700 -4.980500 -70.383100 5.348090 -0.000007 -0.000001 -69.279200 19.346900 -5.917160 24.328600 0.000019 0.000005 -2.475910 -2.240050 -47.824000 22.291600 -0.000001 0.000005 -1.876780 5.632330 -13.497200 12.994500 -0.242716 -4.980390 88.843500 2.769770 -67.327600 -5.348130 -0.000001 -0.000004 -50.356900 17.405000 -18.518400 -24.328900 0.000322 -0.000009 -2.537370 -2.299290 -47.814100 -22.291500 -0.000108 -0.000004 0.332358 5.623730 -12.879600 -2.192480 -6.469440 -0.000000 -164.872000 -3.053270 -12.792500 39.081100 -0.000007 -0.000012 -0.067585 -0.016982 104.114000 40.985400 -0.000006 -0.000013 9.386500 -6.037100 -38.736000 11.754300 -0.000000 0.000003 -0.006693 -0.077018 -19.711900 -2.192510 6.469440 -0.000001 -163.449000 11.129800 141.394000 -39.081100 -0.002282 -0.040193 0.274947 -0.116819 66.742000 -40.985400 0.000008 0.000006 9.043390 -12.094900 -81.301600 -11.754300 -0.000006 -0.000006 -0.004818 -0.059691 -19.001700
